<svg width="27" height="28" viewBox="0 0 27 28" fill="none" xmlns="http://www.w3.org/2000/svg">
<path d="M13.5 27.3333C6.13616 27.3333 0.166626 21.3638 0.166626 14C0.166626 6.63616 6.13616 0.666626 13.5 0.666626C20.8638 0.666626 26.8333 6.63616 26.8333 14C26.8252 21.3604 20.8604 27.3252 13.5 27.3333ZM13.5 3.33329C7.60892 3.33329 2.83329 8.10892 2.83329 14C2.83329 19.891 7.60892 24.6666 13.5 24.6666C19.391 24.6666 24.1666 19.891 24.1666 14C24.16 8.11166 19.3883 3.33991 13.5 3.33329ZM18.8333 20.6666H8.16663V18H18.8333V20.6666ZM8.83329 14C7.72872 14 6.83329 13.1045 6.83329 12C6.83329 10.8954 7.72872 9.99996 8.83329 9.99996C9.93786 9.99996 10.8333 10.8954 10.8333 12C10.8333 13.1045 9.93786 14 8.83329 14ZM18.1573 13.9813C17.0579 13.9813 16.1666 13.09 16.1666 11.9906C16.1666 10.8912 17.0579 9.99996 18.1573 9.99996C19.2567 9.99996 20.148 10.8912 20.148 11.9906C20.1465 13.0894 19.2561 13.9798 18.1573 13.9813Z" fill="#23A6F0"/>
</svg>
