<svg width="27" height="26" viewBox="0 0 27 26" fill="none" xmlns="http://www.w3.org/2000/svg">
<path d="M7.50002 25.6666C5.43884 25.658 3.62436 24.3059 3.02669 22.3333H0.166687V19.6666H3.02669C3.71322 17.3639 6.03607 15.9589 8.39429 16.42C10.7525 16.8811 12.3751 19.0575 12.1438 21.4492C11.9125 23.8409 9.90289 25.666 7.50002 25.6666ZM7.50002 19C6.39545 19 5.50002 19.8954 5.50002 21C5.50002 22.1045 6.39545 23 7.50002 23C8.60459 23 9.50002 22.1045 9.50002 21C9.50002 19.8954 8.60459 19 7.50002 19ZM26.8334 22.3333H13.5V19.6666H26.8334V22.3333ZM19.5 17.6666C17.0972 17.666 15.0875 15.8409 14.8562 13.4492C14.6249 11.0575 16.2475 8.88108 18.6058 8.42C20.964 7.95893 23.2868 9.36392 23.9734 11.6666H26.8334V14.3333H23.9734C23.3757 16.3059 21.5612 17.658 19.5 17.6666ZM19.5 11C18.3955 11 17.5 11.8954 17.5 13C17.5 14.1045 18.3955 15 19.5 15C20.6046 15 21.5 14.1045 21.5 13C21.5 11.8954 20.6046 11 19.5 11ZM13.5 14.3333H0.166687V11.6666H13.5V14.3333ZM10.1667 9.66662C7.76382 9.666 5.7542 7.84089 5.52289 5.44918C5.29158 3.05748 6.91421 0.881078 9.27242 0.420004C11.6306 -0.0410693 13.9535 1.36392 14.64 3.66662H26.8334V6.33329H14.64C14.042 8.30567 12.2277 9.65757 10.1667 9.66662ZM10.1667 2.99995C9.07599 3.00143 8.18759 3.87652 8.16966 4.96707C8.15173 6.05762 9.01088 6.96145 10.1009 6.99878C11.191 7.03611 12.11 6.19317 12.1667 5.10395V5.49062V4.99995C12.1667 3.89538 11.2713 2.99995 10.1667 2.99995ZM4.16669 6.33329H0.166687V3.66662H4.16669V6.33329Z" fill="#E74040"/>
</svg>
